<?xml version="1.0" standalone="no"?>
<!DOCTYPE svg PUBLIC "-//W3C//DTD SVG 20010904//EN"
 "http://www.w3.org/TR/2001/REC-SVG-20010904/DTD/svg10.dtd">
<svg version="1.0" xmlns="http://www.w3.org/2000/svg"
 width="300.000000pt" height="292.000000pt" viewBox="0 0 300.000000 292.000000"
 preserveAspectRatio="xMidYMid meet">
<metadata>
Created by potrace 1.10, written by Peter Selinger 2001-2011
</metadata>
<g transform="translate(0.000000,292.000000) scale(0.100000,-0.100000)"
fill="#000000" stroke="none">
<path d="M32 2808 c-2 -101 -4 -117 -19 -121 -10 -3 102 -5 250 -6 l267 -1 0
-120 0 -120 -120 0 -119 0 -4 118 -3 117 -2 -117 -2 -118 -120 0 -119 0 -4
118 -3 117 -2 -117 c-2 -101 -4 -117 -20 -121 -9 -3 47 -5 125 -6 l142 -1 4
-117 3 -118 2 118 2 117 120 0 120 0 0 -120 0 -120 -267 -3 -268 -2 268 -3
267 -2 0 -120 0 -120 -267 -3 -268 -2 268 -3 267 -2 0 -120 0 -120 -120 0
-119 0 -4 118 -3 117 -2 -117 -2 -118 -142 0 c-78 0 -139 -3 -135 -6 3 -3 67
-5 141 -5 l135 2 4 -118 3 -118 2 118 2 117 120 0 120 0 0 -120 0 -120 -267 0
c-146 0 -264 -3 -260 -6 3 -3 67 -5 141 -5 l135 2 4 -118 3 -118 2 118 2 117
120 0 120 0 0 -120 0 -120 -267 -1 c-148 -1 -260 -3 -251 -6 15 -4 18 -21 21
-121 l3 -117 2 118 2 117 120 0 119 0 4 -117 3 -118 2 118 2 117 120 0 120 0
0 -120 0 -120 -267 -1 c-148 -1 -260 -3 -251 -6 15 -4 18 -21 21 -121 l3 -117
2 118 2 117 120 0 119 0 4 -117 3 -118 2 118 2 117 120 0 120 0 0 -120 0 -120
-267 0 c-146 0 -264 -3 -260 -6 3 -3 67 -5 141 -5 l135 2 4 -118 3 -118 2 118
2 117 120 0 120 0 0 -120 0 -120 -267 0 c-146 0 -264 -3 -260 -6 3 -4 66 -7
139 -8 l133 -1 6 -115 5 -115 2 118 2 117 120 0 120 0 0 -120 0 -120 -117 -2
-118 -2 115 -5 115 -6 6 -90 c3 -62 6 -22 7 128 l2 217 120 0 120 0 -1 -211
c0 -116 2 -214 5 -217 4 -3 6 92 6 211 l0 217 120 0 120 0 0 -120 0 -119 -117
-4 -118 -3 117 -2 117 -2 4 -93 c1 -50 4 6 5 126 l2 217 120 0 120 0 0 -120 0
-119 -117 -4 -118 -3 117 -2 117 -2 4 -93 c1 -50 4 6 5 126 l2 217 120 0 120
0 0 -120 0 -119 -117 -4 -118 -3 117 -2 117 -2 4 -93 c1 -50 4 6 5 126 l2 217
120 0 120 0 0 -120 0 -119 -117 -4 -118 -3 117 -2 117 -2 4 -92 c1 -51 4 5 5
125 l2 217 120 0 120 0 0 -211 c-1 -117 2 -214 5 -217 3 -3 5 92 5 211 l0 217
120 0 120 0 0 -120 0 -119 -117 -4 -118 -3 117 -2 117 -2 4 -92 3 -93 2 92 2
92 118 4 117 3 -117 2 -118 2 0 120 0 120 120 0 120 0 3 -217 2 -218 3 218 2
217 120 0 120 0 0 -120 0 -119 -117 -4 -118 -3 117 -2 117 -2 4 -92 3 -93 2
92 2 92 108 4 107 3 -107 2 -108 2 0 120 0 119 108 4 107 3 -107 2 -108 2 0
120 0 119 108 4 107 3 -107 2 -108 2 0 120 0 119 108 4 107 3 -107 2 -108 2 0
120 0 119 108 4 107 3 -107 2 -108 2 0 120 0 119 108 4 107 3 -107 2 -108 2 0
120 0 119 108 4 107 3 -107 2 -108 2 0 120 0 119 108 4 107 3 -107 2 -108 2 0
120 0 119 108 4 107 3 -107 2 -108 2 0 120 0 119 108 4 107 3 -107 2 -108 2 0
120 0 119 108 4 107 3 -107 2 -107 2 -4 118 -3 117 -2 -117 -2 -118 -120 0
-119 0 -4 118 -3 117 -2 -117 -2 -118 -120 0 -119 0 -4 118 -3 117 -2 -117 -2
-118 -120 0 -119 0 -4 118 -3 117 -2 -117 -2 -118 -120 0 -119 0 -4 118 -3
117 -2 -117 -2 -118 -120 0 -119 0 -4 118 -3 117 -2 -117 -2 -118 -120 0 -119
0 -4 118 -3 117 -2 -117 -2 -118 -120 0 -119 0 -4 118 -3 117 -2 -117 -2 -118
-120 0 -119 0 -4 118 -3 117 -2 -117 -2 -118 -120 0 -119 0 -4 118 -3 117 -2
-117 -2 -118 -120 0 -119 0 -4 118 -3 117 -2 -117 -2 -118 -120 0 -119 0 -4
118 -3 117 -2 -117z m748 -248 l0 -120 -120 0 -120 0 0 120 0 120 120 0 120 0
0 -120z m250 0 l0 -120 -120 0 -120 0 0 120 0 120 120 0 120 0 0 -120z m250 0
l0 -120 -120 0 -120 0 0 120 0 120 120 0 120 0 0 -120z m250 0 l0 -120 -120 0
-120 0 0 120 0 120 120 0 120 0 0 -120z m250 0 l0 -120 -120 0 -120 0 0 120 0
120 120 0 120 0 0 -120z m250 0 l0 -120 -120 0 -120 0 0 120 0 120 120 0 120
0 0 -120z m250 0 l0 -120 -120 0 -120 0 0 120 0 120 120 0 120 0 0 -120z m250
0 l0 -120 -120 0 -120 0 0 120 0 120 120 0 120 0 0 -120z m250 0 l0 -120 -120
0 -120 0 0 120 0 120 120 0 120 0 0 -120z m-2000 -250 l0 -120 -120 0 -120 0
0 120 0 120 120 0 120 0 0 -120z m250 0 l0 -120 -120 0 -120 0 0 120 0 120
120 0 120 0 0 -120z m252 3 l2 -118 3 118 4 117 119 0 120 0 0 -120 0 -120
-107 0 c-58 0 -104 -2 -101 -5 3 -3 107 -5 232 -5 173 0 226 -3 226 -13 0 -9
2 -9 8 0 4 7 37 14 72 16 l65 3 -67 2 -68 2 0 120 0 120 120 0 120 0 2 -92 2
-93 3 93 4 92 119 0 120 0 0 -120 0 -120 -77 -2 -78 -2 78 -3 77 -4 0 -119 0
-120 -77 -2 -78 -2 78 -3 77 -4 0 -119 0 -120 -120 0 -120 0 -2 83 -2 82 -3
-82 -4 -83 -82 -2 -82 -2 83 -3 82 -4 0 -119 0 -120 -117 -2 -118 -2 118 -3
117 -4 0 -119 0 -120 -37 -2 -38 -1 38 -4 37 -4 0 -120 0 -119 -120 0 -120 0
-1 28 -2 27 -4 -27 -4 -28 -120 0 c-116 0 -119 0 -120 23 l-2 22 -4 -22 c-4
-22 -10 -23 -101 -25 l-97 -2 98 -3 97 -4 0 -119 0 -120 -120 0 -120 0 -2 108
-2 107 -3 -107 -4 -108 -119 0 -120 0 0 120 0 120 83 2 82 2 -82 3 -83 4 -2
102 -2 102 -3 -102 -4 -103 -119 0 -120 0 0 120 0 120 83 2 82 2 -82 3 -83 4
0 119 0 120 73 2 72 2 -72 3 -73 4 0 119 0 120 58 2 57 2 -57 3 -58 4 0 119 0
120 33 2 32 1 -32 4 -33 4 0 120 0 119 120 0 c107 0 120 -2 121 -17 1 -17 2
-17 6 0 4 15 19 17 111 19 l107 2 -107 3 -108 4 0 119 0 120 120 0 120 0 2
-117z m498 -3 l0 -120 -120 0 -120 0 0 120 0 120 120 0 120 0 0 -120z m750 0
l0 -120 -120 0 -120 0 0 120 0 120 120 0 120 0 0 -120z m250 0 l0 -120 -120 0
-120 0 0 120 0 120 120 0 120 0 0 -120z m-2000 -250 l0 -120 -120 0 -120 0 0
120 0 120 120 0 120 0 0 -120z m1750 0 l0 -120 -120 0 -120 0 0 120 0 120 120
0 120 0 0 -120z m250 0 l0 -120 -120 0 -120 0 0 120 0 120 120 0 120 0 0 -120z
m-2000 -250 l0 -120 -120 0 -120 0 0 120 0 120 120 0 120 0 0 -120z m1750 0
l0 -120 -120 0 -120 0 0 120 0 120 120 0 120 0 0 -120z m250 0 l0 -120 -120 0
-120 0 0 120 0 120 120 0 120 0 0 -120z m-2000 -250 l0 -120 -120 0 -120 0 0
120 0 120 120 0 120 0 0 -120z m1500 0 l0 -120 -120 0 -120 0 0 120 0 120 120
0 120 0 0 -120z m250 0 l0 -120 -120 0 -120 0 0 120 0 120 120 0 120 0 0 -120z
m250 0 l0 -120 -120 0 -120 0 0 120 0 120 120 0 120 0 0 -120z m-2000 -250 l0
-120 -120 0 -120 0 0 120 0 120 120 0 120 0 0 -120z m1500 0 l0 -120 -120 0
-120 0 0 120 0 120 120 0 120 0 0 -120z m250 0 l0 -120 -120 0 -120 0 0 120 0
120 120 0 120 0 0 -120z m250 0 l0 -120 -120 0 -120 0 0 120 0 120 120 0 120
0 0 -120z m-2000 -250 l0 -120 -120 0 -120 0 0 120 0 120 120 0 120 0 0 -120z
m1500 0 l0 -120 -120 0 -120 0 0 120 0 120 120 0 120 0 0 -120z m250 0 l0
-120 -120 0 -120 0 0 120 0 120 120 0 120 0 0 -120z m250 0 l0 -120 -120 0
-120 0 0 120 0 120 120 0 120 0 0 -120z m-2000 -250 l0 -120 -120 0 -120 0 0
120 0 120 120 0 120 0 0 -120z m250 0 l0 -120 -120 0 -120 0 0 120 0 120 120
0 120 0 0 -120z m750 0 l0 -120 -120 0 -120 0 0 120 0 120 120 0 120 0 0 -120z
m250 0 l0 -120 -120 0 -120 0 0 120 0 120 120 0 120 0 0 -120z m250 0 l0 -120
-120 0 -120 0 0 120 0 120 120 0 120 0 0 -120z m250 0 l0 -120 -120 0 -120 0
0 120 0 120 120 0 120 0 0 -120z m250 0 l0 -120 -120 0 -120 0 0 120 0 120
120 0 120 0 0 -120z m-2000 -250 l0 -120 -120 0 -120 0 0 120 0 120 120 0 120
0 0 -120z m250 0 l0 -120 -120 0 -120 0 0 120 0 120 120 0 120 0 0 -120z m250
0 l0 -120 -120 0 -120 0 0 120 0 120 120 0 120 0 0 -120z m250 0 l0 -120 -120
0 -120 0 0 120 0 120 120 0 120 0 0 -120z m250 0 l0 -120 -120 0 -120 0 0 120
0 120 120 0 120 0 0 -120z m250 0 l0 -120 -120 0 -120 0 0 120 0 120 120 0
120 0 0 -120z m250 0 l0 -120 -120 0 -120 0 0 120 0 120 120 0 120 0 0 -120z
m250 0 l0 -120 -120 0 -120 0 0 120 0 120 120 0 120 0 0 -120z m250 0 l0 -120
-120 0 -120 0 0 120 0 120 120 0 120 0 0 -120z"/>
<path d="M2066 2241 c-38 -39 -110 -77 -187 -98 -78 -20 -257 -22 -374 -3
-107 17 -306 18 -375 1 -113 -28 -190 -85 -238 -176 -35 -67 -38 -169 -6 -212
36 -48 82 -73 135 -73 64 0 99 31 149 130 43 86 87 136 140 158 50 21 179 17
270 -8 217 -59 295 -73 405 -74 l110 -1 5 185 c3 102 2 188 -1 193 -3 4 -18
-6 -33 -22z m-10 -60 c-4 -5 -1 -11 6 -13 19 -7 -55 -57 -118 -79 -82 -30
-239 -35 -428 -15 -271 29 -368 19 -471 -49 -27 -19 -58 -48 -69 -66 -18 -30
-17 -30 22 9 51 51 102 78 189 98 74 17 102 17 391 -11 137 -14 189 -15 253
-6 80 11 188 50 210 77 6 8 14 14 18 14 8 0 7 -207 -2 -216 -16 -16 -173 0
-294 29 -18 5 -28 17 -15 18 7 1 15 2 20 3 4 1 35 6 69 10 63 8 174 53 189 78
6 9 1 8 -16 -3 -87 -56 -232 -70 -474 -44 -224 23 -344 18 -417 -18 -30 -14
-66 -38 -80 -53 -23 -25 -23 -25 26 5 56 34 174 67 202 57 16 -7 15 -10 -12
-29 -51 -36 -79 -71 -114 -143 -43 -88 -71 -114 -125 -114 -50 0 -78 18 -100
64 -49 103 29 248 167 312 69 31 178 43 294 33 429 -39 496 -36 613 25 77 40
73 38 66 27z"/>
<path d="M2006 2145 c-94 -56 -255 -68 -516 -40 -289 31 -410 9 -503 -94 -54
-59 -45 -61 18 -3 107 98 199 112 548 78 164 -16 211 -17 278 -8 80 12 188 52
210 78 15 18 12 17 -35 -11z"/>
<path d="M2000 2085 c-107 -57 -229 -67 -487 -39 -199 22 -330 16 -403 -18
-30 -14 -73 -45 -95 -69 l-40 -43 38 32 c57 48 128 81 206 94 59 10 100 9 258
-7 301 -30 425 -21 528 40 25 14 45 28 45 30 0 7 1 7 -50 -20z"/>
<path d="M1417 1933 c95 -3 112 -6 116 -21 3 -12 5 -11 6 6 1 22 0 22 -116 20
l-118 -2 112 -3z"/>
<path d="M1283 1855 c0 -33 2 -45 4 -27 2 18 2 45 0 60 -2 15 -4 0 -4 -33z"/>
<path d="M1510 1861 c-246 -92 -473 -258 -541 -396 -41 -83 -48 -157 -21 -218
36 -82 127 -102 166 -36 18 31 18 31 -15 97 -58 113 -44 169 73 286 37 37 68
72 68 76 0 10 40 40 52 40 5 0 8 -5 8 -11 0 -5 -4 -7 -10 -4 -5 3 -10 -1 -10
-10 0 -8 -6 -18 -14 -21 -7 -3 -25 -26 -39 -52 -77 -144 -85 -344 -21 -588 13
-53 27 -101 30 -106 3 -4 20 3 38 17 80 61 117 70 296 71 173 1 218 8 277 49
77 52 100 128 69 223 -24 71 -41 83 -56 38 -35 -107 -247 -177 -340 -113 -53
36 -71 80 -68 165 2 39 -1 72 -6 72 -5 0 -25 -10 -44 -22 -33 -20 -34 -22 -15
-31 15 -7 22 -22 27 -59 8 -61 36 -119 71 -146 31 -25 32 -32 1 -32 -14 0 -28
-4 -31 -10 -6 -9 115 -16 235 -14 62 2 124 36 157 85 26 39 27 40 35 18 5 -12
6 -31 2 -42 -4 -13 -2 -17 5 -13 17 11 13 -5 -11 -41 -13 -18 -45 -45 -72 -59
-47 -26 -55 -27 -225 -29 -173 -2 -177 -2 -250 -33 -41 -18 -76 -30 -79 -28
-18 19 -44 169 -49 281 -6 149 8 226 58 332 36 75 129 179 190 211 44 23 44
23 14 1 -76 -57 -153 -147 -188 -220 -49 -104 -62 -166 -60 -299 1 -112 23
-254 43 -274 13 -13 13 -6 -5 87 -20 102 -19 285 0 362 21 81 76 190 124 245
41 48 118 107 127 98 3 -3 -16 -21 -42 -39 -88 -64 -165 -185 -195 -309 -26
-105 -10 -406 23 -426 6 -4 8 4 4 22 -57 270 -11 505 125 649 29 30 56 55 62
55 5 0 -17 -28 -49 -62 -106 -115 -150 -260 -141 -462 3 -67 10 -132 15 -146
7 -18 9 11 5 98 -8 167 17 309 72 409 27 48 64 91 66 76 1 -4 0 -24 -1 -44 -3
-63 46 -73 95 -19 31 34 112 71 171 77 46 5 55 3 77 -19 23 -23 24 -29 16 -72
-11 -61 -38 -105 -67 -113 -28 -7 -35 0 -38 37 -4 49 -33 79 -77 80 -21 0 -51
-7 -66 -15 -16 -8 -31 -11 -35 -8 -3 4 -6 0 -6 -7 0 -7 -3 -11 -6 -7 -8 8
-142 -100 -155 -125 -19 -35 -2 -30 67 23 80 61 183 112 216 107 21 -3 23 -8
23 -63 0 -55 2 -60 26 -68 36 -13 94 16 124 62 54 81 50 176 -8 212 -69 44
-220 -1 -297 -88 -22 -25 -40 -41 -40 -36 0 42 72 219 112 276 24 33 22 33
-72 -2z m-515 -446 c-10 -69 10 -148 47 -184 18 -17 27 -31 22 -31 -16 0 -62
52 -73 83 -12 31 -15 160 -4 170 13 14 15 6 8 -38z m-14 -158 c7 -15 23 -37
37 -47 27 -22 22 -26 -10 -9 -27 15 -58 86 -57 134 l1 40 9 -45 c5 -25 14 -58
20 -73z m73 57 c27 -48 34 -84 16 -84 -17 0 -39 44 -44 88 -3 23 -4 42 -2 42
2 0 16 -21 30 -46z"/>
<path d="M1783 1815 c0 -38 2 -53 4 -32 2 20 2 52 0 70 -2 17 -4 1 -4 -38z"/>
<path d="M1532 1473 c-2 -26 -7 -32 -29 -36 l-28 -4 27 -2 27 -1 4 -102 3
-103 2 102 2 102 58 4 57 3 -57 2 c-56 2 -57 2 -61 35 l-4 32 -1 -32z"/>
<path d="M1783 1345 c0 -44 2 -61 4 -37 2 23 2 59 0 80 -2 20 -4 1 -4 -43z"/>
<path d="M1848 1186 c-15 -19 -47 -43 -71 -55 -40 -19 -58 -21 -190 -19 -88 2
-150 -1 -156 -7 -7 -7 44 -10 152 -10 178 1 210 8 258 61 22 24 44 64 36 64
-1 0 -14 -15 -29 -34z"/>
<path d="M1845 1140 c-49 -51 -97 -63 -264 -64 -113 -1 -153 -4 -163 -15 -11
-11 -8 -12 17 -5 17 5 98 8 180 9 120 0 156 3 180 17 34 18 85 66 85 79 0 14
-4 11 -35 -21z"/>
<path d="M34 2310 c0 -63 1 -89 3 -57 2 31 2 83 0 115 -2 31 -3 5 -3 -58z"/>
<path d="M34 2060 c0 -63 1 -89 3 -57 2 31 2 83 0 115 -2 31 -3 5 -3 -58z"/>
<path d="M284 2060 c0 -63 1 -89 3 -57 2 31 2 83 0 115 -2 31 -3 5 -3 -58z"/>
<path d="M34 1810 c0 -63 1 -89 3 -57 2 31 2 83 0 115 -2 31 -3 5 -3 -58z"/>
<path d="M34 1555 c0 -60 1 -84 3 -52 2 32 2 81 0 110 -2 29 -3 3 -3 -58z"/>
<path d="M34 1305 c0 -60 1 -84 3 -52 2 32 2 81 0 110 -2 29 -3 3 -3 -58z"/>
<path d="M34 555 c0 -60 1 -84 3 -52 2 32 2 81 0 110 -2 29 -3 3 -3 -58z"/>
<path d="M34 305 c0 -60 1 -84 3 -52 2 32 2 81 0 110 -2 29 -3 3 -3 -58z"/>
<path d="M103 183 c32 -2 81 -2 110 0 29 2 3 3 -58 3 -60 0 -84 -1 -52 -3z"/>
<path d="M278 113 c5 -120 9 -128 11 -20 0 53 -2 97 -7 97 -4 0 -6 -35 -4 -77z"/>
<path d="M603 183 c32 -2 81 -2 110 0 29 2 3 3 -58 3 -60 0 -84 -1 -52 -3z"/>
<path d="M1853 183 c32 -2 81 -2 110 0 29 2 3 3 -58 3 -60 0 -84 -1 -52 -3z"/>
<path d="M33 80 c0 -47 2 -66 4 -42 2 23 2 61 0 85 -2 23 -4 4 -4 -43z"/>
</g>
</svg>
